<?xml version="1.0" encoding="UTF-8"?>
<!DOCTYPE svg PUBLIC "-//W3C//DTD SVG 1.1//EN" "http://www.w3.org/Graphics/SVG/1.1/DTD/svg11.dtd">
<svg xmlns="http://www.w3.org/2000/svg" version="1.1" width="32px" height="32px" style="shape-rendering:geometricPrecision; text-rendering:geometricPrecision; image-rendering:optimizeQuality; fill-rule:evenodd; clip-rule:evenodd" xmlns:xlink="http://www.w3.org/1999/xlink">
<g><path style="opacity:0.875" fill="#2b65ff" d="M 27.5,8.5 C 26.1667,8.5 24.8333,8.5 23.5,8.5C 21.2568,7.18834 18.5902,6.52168 15.5,6.5C 12.4098,6.52168 9.74317,7.18834 7.5,8.5C 6.16667,8.5 4.83333,8.5 3.5,8.5C 3.5,6.83333 3.5,5.16667 3.5,3.5C 11.5,3.5 19.5,3.5 27.5,3.5C 27.5,5.16667 27.5,6.83333 27.5,8.5 Z"/></g>
<g><path style="opacity:0.669" fill="#9eacff" d="M 11.5,11.5 C 10.8333,11.5 10.1667,11.5 9.5,11.5C 10.0089,8.39966 11.3422,7.56633 13.5,9C 13.3613,10.301 12.6946,11.1344 11.5,11.5 Z"/></g>
<g><path style="opacity:0.671" fill="#a1aeff" d="M 21.5,11.5 C 20.8333,11.5 20.1667,11.5 19.5,11.5C 17.5241,10.5729 17.1908,9.23953 18.5,7.5C 20.2882,8.28255 21.2882,9.61589 21.5,11.5 Z"/></g>
<g><path style="opacity:0.502" fill="#5353ff" d="M 3.5,8.5 C 4.83333,8.5 6.16667,8.5 7.5,8.5C 7.5,9.83333 7.5,11.1667 7.5,12.5C 7.5,12.8333 7.5,13.1667 7.5,13.5C 6.16667,13.5 4.83333,13.5 3.5,13.5C 3.5,11.8333 3.5,10.1667 3.5,8.5 Z"/></g>
<g><path style="opacity:0.502" fill="#5353ff" d="M 23.5,8.5 C 24.8333,8.5 26.1667,8.5 27.5,8.5C 27.5,10.1667 27.5,11.8333 27.5,13.5C 26.1667,13.5 24.8333,13.5 23.5,13.5C 23.5,13.1667 23.5,12.8333 23.5,12.5C 23.5,11.1667 23.5,9.83333 23.5,8.5 Z"/></g>
<g><path style="opacity:0.458" fill="#c89afe" d="M 9.5,11.5 C 10.1667,11.5 10.8333,11.5 11.5,11.5C 11.3893,12.1174 11.056,12.6174 10.5,13C 12.6157,14.1707 13.2824,15.6707 12.5,17.5C 10.8144,16.1431 9.14772,14.8098 7.5,13.5C 7.5,13.1667 7.5,12.8333 7.5,12.5C 8.16667,12.1667 8.83333,11.8333 9.5,11.5 Z"/></g>
<g><path style="opacity:0.458" fill="#c89bfe" d="M 19.5,11.5 C 20.1667,11.5 20.8333,11.5 21.5,11.5C 22.1667,11.8333 22.8333,12.1667 23.5,12.5C 23.5,12.8333 23.5,13.1667 23.5,13.5C 21.8523,14.8098 20.1856,16.1431 18.5,17.5C 17.7176,15.6707 18.3843,14.1707 20.5,13C 19.944,12.6174 19.6107,12.1174 19.5,11.5 Z"/></g>
<g><path style="opacity:0.523" fill="#833ffe" d="M 3.5,13.5 C 4.83333,13.5 6.16667,13.5 7.5,13.5C 7.5,15.1667 7.5,16.8333 7.5,18.5C 12.8333,18.5 18.1667,18.5 23.5,18.5C 23.5,16.8333 23.5,15.1667 23.5,13.5C 24.8333,13.5 26.1667,13.5 27.5,13.5C 27.5,15.5 27.5,17.5 27.5,19.5C 19.5,19.5 11.5,19.5 3.5,19.5C 3.5,17.5 3.5,15.5 3.5,13.5 Z"/></g>
<g><path style="opacity:0.487" fill="#9935ff" d="M 3.5,19.5 C 11.5,19.5 19.5,19.5 27.5,19.5C 27.5,20.1667 27.5,20.8333 27.5,21.5C 19.5,21.5 11.5,21.5 3.5,21.5C 3.5,20.8333 3.5,20.1667 3.5,19.5 Z"/></g>
<g><path style="opacity:0.56" fill="#ae2fff" d="M 3.5,21.5 C 11.5,21.5 19.5,21.5 27.5,21.5C 26.6016,22.1577 25.6016,22.8243 24.5,23.5C 24.8627,24.1835 25.1961,24.8501 25.5,25.5C 24.5,25.5 23.5,25.5 22.5,25.5C 21.1667,24.1667 19.8333,24.1667 18.5,25.5C 16.5,25.5 14.5,25.5 12.5,25.5C 11.1667,24.1667 9.83333,24.1667 8.5,25.5C 7.5,25.5 6.5,25.5 5.5,25.5C 5.80393,24.8501 6.13727,24.1835 6.5,23.5C 5.39836,22.8243 4.39836,22.1577 3.5,21.5 Z"/></g>
<g><path style="opacity:0.504" fill="#c423ff" d="M 5.5,25.5 C 6.5,25.5 7.5,25.5 8.5,25.5C 9.83333,25.5 11.1667,25.5 12.5,25.5C 14.5,25.5 16.5,25.5 18.5,25.5C 19.8333,25.5 21.1667,25.5 22.5,25.5C 23.5,25.5 24.5,25.5 25.5,25.5C 26.0431,25.56 26.3764,25.8933 26.5,26.5C 19.1667,27.8333 11.8333,27.8333 4.5,26.5C 4.62358,25.8933 4.95691,25.56 5.5,25.5 Z"/></g>
</svg>
